<svg width="108" height="104" viewBox="0 0 108 104" fill="none" xmlns="http://www.w3.org/2000/svg">
<path d="M59.8289 26.8101C66.748 26.8101 72.357 21.3856 72.357 14.6941C72.357 8.00263 66.748 2.57812 59.8289 2.57812C52.9098 2.57812 47.3008 8.00263 47.3008 14.6941C47.3008 21.3856 52.9098 26.8101 59.8289 26.8101Z" fill="#57F287"/>
<path d="M74.157 24.2319C81.0761 24.2319 86.6851 18.8074 86.6851 12.116C86.6851 5.4245 81.0761 0 74.157 0C67.2379 0 61.6289 5.4245 61.6289 12.116C61.6289 18.8074 67.2379 24.2319 74.157 24.2319Z" fill="#57F287"/>
<path d="M82.9422 33.0757C89.8612 33.0757 95.4703 27.6512 95.4703 20.9597C95.4703 14.2683 89.8612 8.84375 82.9422 8.84375C76.0231 8.84375 70.4141 14.2683 70.4141 20.9597C70.4141 27.6512 76.0231 33.0757 82.9422 33.0757Z" fill="#57F287"/>
<path d="M10.7263 8.63477H83.5908L107.999 47.6287L103.679 57.3772H30.7424L6.40625 18.3832L10.7263 8.63477Z" fill="#FF78B9"/>
<path d="M33.192 8.63477H27C27.1506 9.31627 27.5422 9.92563 28.1073 10.3579C28.6725 10.7901 29.3758 11.0182 30.096 11.0028C30.8129 11.0052 31.5095 10.7723 32.0718 10.3421C32.6342 9.91202 33.0291 9.31011 33.192 8.63477Z" fill="#FFBADB"/>
<path d="M42.6917 16.5713C41.9024 16.5683 41.1216 16.7282 40.4015 17.0405C39.6813 17.3528 39.0384 17.8102 38.5156 18.3822H46.7957C46.287 17.812 45.6569 17.3549 44.9485 17.0424C44.2401 16.7298 43.4702 16.5691 42.6917 16.5713Z" fill="#FFBADB"/>
<path d="M18.5042 16.5713C17.7149 16.5683 16.9341 16.7282 16.214 17.0405C15.4938 17.3528 14.8509 17.8102 14.3281 18.3822H22.6082C22.0995 17.812 21.4694 17.3549 20.761 17.0424C20.0526 16.7298 19.2827 16.5691 18.5042 16.5713Z" fill="#FFBADB"/>
<path d="M75.3828 8.63379C75.5334 9.31529 75.925 9.92465 76.4902 10.3569C77.0553 10.7891 77.7586 11.0172 78.4788 11.0018C79.1957 11.0042 79.8923 10.7713 80.4547 10.3412C81.017 9.91104 81.4119 9.30913 81.5749 8.63379H75.3828Z" fill="#FFBADB"/>
<path d="M57.3835 8.63379H51.1914C51.342 9.31529 51.7336 9.92465 52.2988 10.3569C52.8639 10.7891 53.5672 11.0172 54.2874 11.0018C55.0043 11.0042 55.7009 10.7713 56.2633 10.3412C56.8256 9.91104 57.2205 9.30913 57.3835 8.63379Z" fill="#FFBADB"/>
<path d="M66.887 16.5713C66.0978 16.5683 65.317 16.7282 64.5968 17.0405C63.8766 17.3528 63.2337 17.8102 62.7109 18.3822H70.991C70.4823 17.812 69.8522 17.3549 69.1438 17.0424C68.4354 16.7298 67.6656 16.5691 66.887 16.5713Z" fill="#FFBADB"/>
<path d="M38.5896 8.63379H51.9097L47.5896 18.3823H34.2695L38.5896 8.63379Z" fill="#57F287"/>
<path d="M6.40625 18.3838H79.2708L103.679 57.3777H30.7424L6.40625 18.3838Z" fill="black"/>
<path d="M83.5896 8.63379L79.2695 18.3823L103.678 57.3762L107.998 47.6277L83.5896 8.63379Z" fill="#EB459F"/>
<path d="M93.0234 40.3191L96.5515 45.9593V45.3326C96.5656 44.248 96.2347 43.1854 95.6037 42.2886C94.9726 41.3919 94.0719 40.7044 93.0234 40.3191Z" fill="#FFBADB"/>
<path d="M103.678 57.3775L105.478 53.3389C105.208 52.8428 104.804 52.426 104.31 52.132C103.816 51.8381 103.25 51.6777 102.67 51.6677C101.901 51.6695 101.159 51.9417 100.582 52.4337L103.678 57.3775Z" fill="#FFBADB"/>
<path d="M85.5353 21.9358C85.5352 22.6367 85.6791 23.3306 85.9586 23.9772C86.2381 24.6238 86.6476 25.2104 87.1634 25.7027C87.6792 26.195 88.2909 26.5834 88.9631 26.8452C89.6354 27.107 90.3547 27.2371 91.0793 27.2278C92.3399 27.2411 93.5644 26.8217 94.5353 26.0441L88.8473 16.9919C87.8565 17.4134 87.0149 18.1061 86.4263 18.9846C85.8378 19.8631 85.528 20.889 85.5353 21.9358Z" fill="#FFBADB"/>
<path d="M94.7514 26.3896L100.655 35.9292L96.3354 45.6777L90.3594 36.1381L94.7514 26.3896Z" fill="#29CC7A"/>
<path fill-rule="evenodd" clip-rule="evenodd" d="M18.0622 22.2028C20.1356 21.9673 22.0138 23.402 22.2573 25.4072C23.316 34.1267 25.9632 41.1754 28.3373 46.0307C29.5232 48.4561 30.6366 50.3251 31.4401 51.5704C31.8417 52.1928 32.1651 52.6583 32.3805 52.9584C32.4882 53.1085 32.5688 53.2171 32.6186 53.2833C32.6435 53.3163 32.6607 53.3388 32.6697 53.3505L32.6759 53.3585L32.6729 53.3548C32.6723 53.3539 32.6716 53.353 29.7413 55.5089L32.6716 53.353C32.6733 53.3552 32.6749 53.3573 32.6766 53.3595C33.9347 54.966 33.6111 57.2551 31.9518 58.4759C30.2902 59.6983 27.9187 59.3866 26.6547 57.7797L29.6631 55.5664C26.6547 57.7797 26.6539 57.7787 26.6531 57.7777L26.6513 57.7754L26.6471 57.7701L26.6364 57.7563C26.6281 57.7457 26.6177 57.7323 26.6052 57.7161C26.5803 57.6837 26.5471 57.6401 26.506 57.5856C26.4239 57.4765 26.3105 57.3233 26.1697 57.1271C25.8882 56.7348 25.4967 56.1699 25.0263 55.441C24.0861 53.9837 22.828 51.8663 21.5029 49.1563C18.8549 43.7409 15.9221 35.9232 14.7488 26.2599C14.5053 24.2547 15.9888 22.4382 18.0622 22.2028Z" fill="#5865F2"/>
<path d="M60.1206 26.878C55.8725 30.3596 54.1445 30.3596 54.1445 30.3596L68.9046 31.1952C68.9739 30.521 68.9012 29.8402 68.6908 29.1939C68.4804 28.5476 68.1368 27.9493 67.6806 27.4351C67.2246 26.9147 66.6663 26.4872 66.0381 26.1771C65.4098 25.8671 64.7242 25.6807 64.021 25.6289C63.3177 25.5771 62.6108 25.6608 61.9413 25.8752C61.2717 26.0897 60.6529 26.4305 60.1206 26.878Z" fill="#57F287"/>
<path d="M42.9108 29.6627L59.543 30.6375C59.471 30.6375 57.0229 30.359 51.6949 23.9528C50.8454 22.9937 49.6613 22.3697 48.3674 22.1993C47.0735 22.0288 45.76 22.3239 44.6762 23.0283C43.5924 23.7328 42.8139 24.7977 42.4884 26.0207C42.163 27.2437 42.3133 28.5397 42.9108 29.6627Z" fill="#29CC7A"/>
<path d="M27.9968 39.6603L30.153 39.7842C30.6486 39.8127 31.1123 40.0304 31.4419 40.3895C31.7715 40.7485 31.9402 41.2195 31.9107 41.6988L31.0183 56.2263C31.0035 56.4696 30.9381 56.7075 30.826 56.9258C30.7138 57.1441 30.5573 57.3382 30.3657 57.4965C30.1741 57.6549 29.9515 57.7742 29.7111 57.8473C29.4707 57.9204 29.2175 57.9458 28.9667 57.922L26.8104 57.7981C25.6286 57.7302 24.523 57.2111 23.737 56.3549C22.9509 55.4986 22.5488 54.3755 22.619 53.2325L23.204 43.7097C23.2742 42.5668 23.811 41.4976 24.6964 40.7374C25.5817 39.9772 26.7431 39.5883 27.9249 39.6562L27.9968 39.6603Z" fill="#7196FF"/>
<path d="M72.2664 31.3945L37.192 29.3792C31.7141 29.0645 27.0096 33.1039 26.6842 38.4016L25.7648 53.367C25.4394 58.6647 29.6162 63.2144 35.0941 63.5292L70.1685 65.5444C75.6464 65.8592 80.351 61.8197 80.6764 56.522L81.5958 41.5567C81.9212 36.259 77.7443 31.7092 72.2664 31.3945Z" fill="#7196FF"/>
<path d="M33.1217 45.6096C34.7918 45.6096 36.1457 44.3002 36.1457 42.685C36.1457 41.0699 34.7918 39.7605 33.1217 39.7605C31.4516 39.7605 30.0977 41.0699 30.0977 42.685C30.0977 44.3002 31.4516 45.6096 33.1217 45.6096Z" fill="black"/>
<path d="M75.1016 42.3562L83.942 42.8641C85.1048 42.931 86.1925 43.4418 86.9659 44.2842C87.7393 45.1266 88.135 46.2316 88.0659 47.3561L87.4723 57.0179C87.4032 58.1425 86.8751 59.1944 86.004 59.9423C85.1329 60.6903 83.9903 61.0729 82.8275 61.0061L73.9871 60.4982L75.1016 42.3562Z" fill="#7196FF"/>
<path d="M79.7852 44.7214L82.3007 44.866C82.8345 44.8966 83.3338 45.1311 83.6887 45.5178C84.0437 45.9045 84.2254 46.4117 84.1936 46.9279L83.7367 54.3654C83.705 54.8816 83.4626 55.3644 83.0628 55.7077C82.6629 56.051 82.1385 56.2267 81.6047 56.196L79.0891 56.0515L79.7852 44.7214Z" fill="#B8CDFF"/>
<path d="M66.5291 47.7686C68.3185 47.7686 69.7691 46.3657 69.7691 44.6351C69.7691 42.9046 68.3185 41.5017 66.5291 41.5017C64.7397 41.5017 63.2891 42.9046 63.2891 44.6351C63.2891 46.3657 64.7397 47.7686 66.5291 47.7686Z" fill="black"/>
<path d="M38.7273 37.6288L57.702 38.719C58.1173 38.7429 58.5237 38.8456 58.8979 39.0214C59.2721 39.1971 59.6069 39.4424 59.8831 39.7433C60.1594 40.0442 60.3716 40.3947 60.5077 40.7749C60.6438 41.1551 60.7012 41.5575 60.6765 41.9592L60.2154 49.4662C60.0919 51.4756 59.1482 53.3553 57.5917 54.6918C56.0352 56.0282 53.9935 56.712 51.9157 56.5926L41.2065 55.9773C40.3098 55.9258 39.4324 55.7039 38.6244 55.3245C37.8164 54.945 37.0935 54.4154 36.4972 53.7658C35.9008 53.1162 35.4426 52.3593 35.1487 51.5384C34.8547 50.7176 34.7309 49.8487 34.7841 48.9816L35.3008 40.5709C35.3164 40.157 35.4186 39.7504 35.6012 39.3758C35.7838 39.0011 36.0431 38.6661 36.3634 38.3911C36.6837 38.1161 37.0583 37.9068 37.4646 37.7758C37.8709 37.6448 38.3005 37.5948 38.7273 37.6288Z" fill="#B8CDFF"/>
<path d="M40.7541 52.0155H39.3861C39.203 52.0166 39.0219 51.9801 38.8544 51.9086C38.687 51.8371 38.5372 51.7321 38.4147 51.6005C38.2923 51.4689 38.2001 51.3137 38.1441 51.1451C38.0881 50.9766 38.0697 50.7985 38.0901 50.6225C38.0889 50.4455 38.1266 50.2702 38.2005 50.1083C38.2745 49.9463 38.383 49.8013 38.5191 49.6829C38.6551 49.5645 38.8155 49.4753 38.9898 49.4211C39.164 49.367 39.3482 49.3492 39.5301 49.3688H40.8981C41.0811 49.3678 41.2623 49.4042 41.4297 49.4757C41.5971 49.5472 41.747 49.6522 41.8694 49.7838C41.9919 49.9154 42.0841 50.0706 42.1401 50.2392C42.196 50.4077 42.2144 50.5859 42.1941 50.7618C42.1952 50.9388 42.1576 51.1141 42.0836 51.2761C42.0097 51.438 41.9011 51.583 41.7651 51.7014C41.629 51.8198 41.4686 51.9091 41.2944 51.9632C41.1201 52.0173 40.936 52.0351 40.7541 52.0155Z" fill="#7196FF"/>
<path d="M49.6812 52.5731L47.0892 52.3641C46.9062 52.3652 46.725 52.3288 46.5576 52.2573C46.3901 52.1857 46.2403 52.0807 46.1178 51.9491C45.9954 51.8175 45.9032 51.6624 45.8472 51.4938C45.7913 51.3252 45.7728 51.1471 45.7932 50.9712C45.8024 50.7973 45.847 50.6269 45.9244 50.4697C46.0018 50.3126 46.1105 50.1717 46.2443 50.0553C46.378 49.9388 46.5342 49.849 46.7039 49.7911C46.8736 49.7331 47.0535 49.7081 47.2332 49.7175L49.8252 49.8568C50.0049 49.8657 50.1811 49.9088 50.3436 49.9837C50.506 50.0586 50.6516 50.1637 50.772 50.2931C50.8924 50.4225 50.9852 50.5736 51.0452 50.7378C51.1051 50.9019 51.1309 51.0759 51.1212 51.2498C51.0868 51.6013 50.922 51.929 50.6574 52.1722C50.3927 52.4154 50.046 52.5578 49.6812 52.5731Z" fill="#7196FF"/>
<path d="M95.6887 51.4578H0V103.598H95.6887V51.4578Z" fill="url(#paint0_linear_20_5417)"/>
<path d="M95.6162 51.4578H72V103.598H95.6162V51.4578Z" fill="#EB459F"/>
<path d="M43.13 78.405C46.1919 78.405 48.674 76.0045 48.674 73.0433C48.674 70.0821 46.1919 67.6816 43.13 67.6816C40.0681 67.6816 37.5859 70.0821 37.5859 73.0433C37.5859 76.0045 40.0681 78.405 43.13 78.405Z" fill="#FFBADB"/>
<path d="M54.7214 79.3806C54.0747 79.3669 53.4385 79.5407 52.8948 79.8796C52.3511 80.2186 51.9247 80.7071 51.6706 81.2825C51.4165 81.8578 51.3463 82.4935 51.469 83.1077C51.5917 83.722 51.9017 84.2866 52.3591 84.729C52.8166 85.1714 53.4004 85.4712 54.0356 85.5899C54.6707 85.7085 55.328 85.6406 55.9229 85.3949C56.5178 85.1491 57.023 84.7368 57.3735 84.211C57.7239 83.6852 57.9036 83.0699 57.8894 82.4444C57.8894 82.0421 57.8075 81.6437 57.6483 81.272C57.4891 80.9003 57.2557 80.5625 56.9615 80.278C56.6674 79.9935 56.3181 79.7678 55.9338 79.6139C55.5494 79.4599 55.1374 79.3806 54.7214 79.3806Z" fill="#FFBADB"/>
<path d="M54.7227 55.9844C53.8825 55.9844 53.0767 56.3072 52.4826 56.8817C51.8885 57.4563 51.5547 58.2356 51.5547 59.0482C51.5547 59.8608 51.8885 60.64 52.4826 61.2146C53.0767 61.7892 53.8825 62.112 54.7227 62.112C55.5629 62.112 56.3687 61.7892 56.9628 61.2146C57.557 60.64 57.8907 59.8608 57.8907 59.0482C57.8907 58.2356 57.557 57.4563 56.9628 56.8817C56.3687 56.3072 55.5629 55.9844 54.7227 55.9844Z" fill="#FFBADB"/>
<path d="M43.13 101.801C46.1919 101.801 48.674 99.401 48.674 96.4398C48.674 93.4786 46.1919 91.0781 43.13 91.0781C40.0681 91.0781 37.5859 93.4786 37.5859 96.4398C37.5859 99.401 40.0681 101.801 43.13 101.801Z" fill="#FFBADB"/>
<path d="M43.1254 54.9404C44.2531 54.9388 45.3535 54.6046 46.2798 53.9824C47.206 53.3602 47.9141 52.4796 48.3095 51.458H37.9414C38.3368 52.4796 39.0449 53.3602 39.9711 53.9824C40.8974 54.6046 41.9978 54.9388 43.1254 54.9404Z" fill="#FFBADB"/>
<path d="M30.5274 62.113C32.2771 62.113 33.6954 60.7413 33.6954 59.0492C33.6954 57.3571 32.2771 55.9854 30.5274 55.9854C28.7777 55.9854 27.3594 57.3571 27.3594 59.0492C27.3594 60.7413 28.7777 62.113 30.5274 62.113Z" fill="#FFBADB"/>
<path d="M30.5274 85.5085C32.2771 85.5085 33.6954 84.1368 33.6954 82.4447C33.6954 80.7526 32.2771 79.3809 30.5274 79.3809C28.7777 79.3809 27.3594 80.7526 27.3594 82.4447C27.3594 84.1368 28.7777 85.5085 30.5274 85.5085Z" fill="#FFBADB"/>
<path d="M67.3208 54.9404C68.4484 54.9388 69.5488 54.6046 70.4751 53.9824C71.4013 53.3602 72.1094 52.4796 72.5048 51.458H62.1367C62.5321 52.4796 63.2402 53.3602 64.1665 53.9824C65.0927 54.6046 66.1931 54.9388 67.3208 54.9404Z" fill="#FFBADB"/>
<path d="M78.9102 62.112C80.6599 62.112 82.0782 60.7403 82.0782 59.0482C82.0782 57.3561 80.6599 55.9844 78.9102 55.9844C77.1606 55.9844 75.7422 57.3561 75.7422 59.0482C75.7422 60.7403 77.1606 62.112 78.9102 62.112Z" fill="#FFBADB"/>
<path d="M91.5122 54.9404C92.3014 54.9435 93.0822 54.7835 93.8024 54.4712C94.5225 54.1589 95.1655 53.7015 95.6882 53.1296V51.458H86.3281C86.7235 52.4796 87.4316 53.3602 88.3579 53.9824C89.2841 54.6046 90.3845 54.9388 91.5122 54.9404Z" fill="#FFBADB"/>
<path d="M78.9102 85.5085C80.6599 85.5085 82.0782 84.1368 82.0782 82.4447C82.0782 80.7526 80.6599 79.3809 78.9102 79.3809C77.1606 79.3809 75.7422 80.7526 75.7422 82.4447C75.7422 84.1368 77.1606 85.5085 78.9102 85.5085Z" fill="#FFBADB"/>
<path d="M68.5985 78.2238C71.5783 77.5425 73.4228 74.6542 72.7184 71.7724C72.014 68.8907 69.0275 67.1068 66.0477 67.788C63.0679 68.4693 61.2234 71.3576 61.9277 74.2393C62.6321 77.1211 65.6187 78.905 68.5985 78.2238Z" fill="#FFBADB"/>
<path d="M71.2412 100.208C73.4062 98.1144 73.4062 94.7196 71.2412 92.6257C69.0761 90.5319 65.5658 90.5319 63.4007 92.6257C61.2356 94.7196 61.2356 98.1144 63.4007 100.208C65.5658 102.302 69.0761 102.302 71.2412 100.208Z" fill="#FFBADB"/>
<path d="M0 71.373V74.6465C0.171288 74.1279 0.267965 73.5888 0.287296 73.0446C0.267432 72.4776 0.17084 71.9156 0 71.373H0Z" fill="#FFBADB"/>
<path d="M54.7186 102.777C53.9165 102.788 53.1468 103.085 52.5586 103.613H56.8786C56.2904 103.085 55.5207 102.788 54.7186 102.777Z" fill="#FFBADB"/>
<path d="M18.9347 67.6816C17.8382 67.6816 16.7663 67.9961 15.8546 68.5852C14.9429 69.1744 14.2323 70.0118 13.8126 70.9915C13.393 71.9712 13.2832 73.0493 13.4972 74.0893C13.7111 75.1294 14.2391 76.0847 15.0144 76.8346C15.7898 77.5844 16.7776 78.0951 17.8531 78.3019C18.9285 78.5088 20.0432 78.4027 21.0563 77.9968C22.0693 77.591 22.9352 76.9038 23.5444 76.0221C24.1536 75.1404 24.4787 74.1037 24.4787 73.0433C24.4787 71.6213 23.8946 70.2575 22.8549 69.252C21.8152 68.2465 20.405 67.6816 18.9347 67.6816Z" fill="#FFBADB"/>
<path d="M78.91 102.777C78.1079 102.788 77.3382 103.085 76.75 103.613H81.07C80.4818 103.085 79.7122 102.788 78.91 102.777Z" fill="#FFBADB"/>
<path d="M6.3358 102.777C5.53366 102.788 4.764 103.085 4.17578 103.613H8.49581C7.90054 103.096 7.13528 102.8 6.3358 102.777Z" fill="#FFBADB"/>
<path d="M91.5109 91.0782C90.1586 91.2279 88.9105 91.8536 88.0045 92.8359C87.0984 93.8183 86.5977 95.0886 86.5977 96.405C86.5977 97.7214 87.0984 98.9918 88.0045 99.9741C88.9105 100.956 90.1586 101.582 91.5109 101.732C92.2927 101.731 93.0661 101.576 93.7841 101.277C94.502 100.978 95.1495 100.54 95.6869 99.9911V92.8886C95.1642 92.3168 94.5213 91.8594 93.8011 91.5472C93.0809 91.235 92.3001 91.0751 91.5109 91.0782Z" fill="#FFBADB"/>
<path d="M91.5148 67.6817C90.1625 67.8315 88.9144 68.4571 88.0084 69.4394C87.1023 70.4218 86.6016 71.6922 86.6016 73.0085C86.6016 74.3249 87.1023 75.5953 88.0084 76.5776C88.9144 77.56 90.1625 78.1856 91.5148 78.3354C92.304 78.3385 93.0848 78.1785 93.805 77.8663C94.5252 77.5541 95.1681 77.0968 95.6909 76.5249V69.4921C95.1681 68.9203 94.5252 68.463 93.805 68.1507C93.0848 67.8385 92.304 67.6786 91.5148 67.6817Z" fill="#FFBADB"/>
<path d="M30.5272 102.777C29.7251 102.788 28.9554 103.085 28.3672 103.613H32.6872C32.099 103.085 31.3293 102.788 30.5272 102.777Z" fill="#FFBADB"/>
<path d="M18.9379 54.9404C20.0656 54.9388 21.166 54.6046 22.0922 53.9824C23.0185 53.3602 23.7266 52.4796 24.122 51.458H13.7539C14.1493 52.4796 14.8574 53.3602 15.7836 53.9824C16.7099 54.6046 17.8103 54.9388 18.9379 54.9404Z" fill="#FFBADB"/>
<path d="M18.9347 91.0781C17.8382 91.0781 16.7663 91.3926 15.8546 91.9817C14.9429 92.5709 14.2323 93.4083 13.8126 94.388C13.393 95.3677 13.2832 96.4457 13.4972 97.4858C13.7111 98.5259 14.2391 99.4812 15.0144 100.231C15.7898 100.981 16.7776 101.492 17.8531 101.698C18.9285 101.905 20.0432 101.799 21.0563 101.393C22.0693 100.988 22.9352 100.3 23.5444 99.4186C24.1536 98.5368 24.4787 97.5002 24.4787 96.4398C24.4787 95.0178 23.8946 93.654 22.8549 92.6485C21.8152 91.643 20.405 91.0781 18.9347 91.0781Z" fill="#FFBADB"/>
<path d="M6.33599 62.112C8.08564 62.112 9.50402 60.7403 9.50402 59.0482C9.50402 57.3561 8.08564 55.9844 6.33599 55.9844C4.58634 55.9844 3.16797 57.3561 3.16797 59.0482C3.16797 60.7403 4.58634 62.112 6.33599 62.112Z" fill="#FFBADB"/>
<path d="M6.33599 85.5085C8.08564 85.5085 9.50402 84.1368 9.50402 82.4447C9.50402 80.7526 8.08564 79.3809 6.33599 79.3809C4.58634 79.3809 3.16797 80.7526 3.16797 82.4447C3.16797 84.1368 4.58634 85.5085 6.33599 85.5085Z" fill="#FFBADB"/>
<path d="M0 94.7695V98.043C0.171288 97.5244 0.267965 96.9853 0.287296 96.4411C0.267432 95.8741 0.17084 95.3121 0 94.7695H0Z" fill="#FFBADB"/>
<path d="M42.9145 51.4578H29.2344V103.598H42.9145V51.4578Z" fill="#57F287"/>
<path d="M89.2083 51.4578H82.6562V103.598H89.2083V51.4578Z" fill="#29CC7A"/>
<path d="M97.6279 30.3601L97.4883 30.0808L97.6279 30.3601Z" fill="#C5ECFF"/>
<defs>
<linearGradient id="paint0_linear_20_5417" x1="47.8299" y1="103.508" x2="47.8299" y2="53.2334" gradientUnits="userSpaceOnUse">
<stop stop-color="#EB459F"/>
<stop offset="1" stop-color="#FF78B9"/>
</linearGradient>
</defs>
</svg>
